<?xml version="1.0"?>
<svg width="1280" height="1280" xmlns="http://www.w3.org/2000/svg" xmlns:svg="http://www.w3.org/2000/svg" preserveAspectRatio="xMidYMid meet">
 <metadata>Created by potrace 1.15, written by Peter Selinger 2001-2017</metadata>
 <g class="layer">
  <title>Layer 1</title>
  <g fill="#000000" id="svg_1" transform="translate(0 1280) scale(0.1 -0.1)">
   <path d="m10167,9943c-4,-3 -7,-957 -7,-2119l0,-2113l-437,244c-241,134 -1000,558 -1688,943l-1250,698l-3,-782l-2,-783l-73,33c-39,19 -538,257 -1107,531c-2028,974 -2201,1057 -2205,1054c-1,-2 3,-278 11,-614c7,-335 13,-672 14,-747l0,-137l-1316,789c-723,435 -1320,790 -1325,790c-5,0 -9,-1339 -9,-3405l0,-3406l-35,-52l-35,-52l72,-12c140,-24 502,-33 1663,-43c1315,-11 8382,-14 9316,-3l606,6l7,1041c3,573 11,1632 17,2354c6,723 8,1316 5,1319c-3,3 -78,9 -168,14c-90,5 -369,20 -622,34c-252,13 -460,26 -463,28c-4,5 -20,1749 -28,3177c-3,569 -8,1077 -11,1128l-6,92l-457,0c-252,0 -461,-3 -464,-7z" fill="#2980b9" id="svg_2"/>
  </g>
 </g>
</svg>